<?xml version="1.0" standalone="no"?>
<!DOCTYPE svg PUBLIC "-//W3C//DTD SVG 20010904//EN"
 "http://www.w3.org/TR/2001/REC-SVG-20010904/DTD/svg10.dtd">
<svg version="1.0" xmlns="http://www.w3.org/2000/svg"
 width="5834.000000pt" height="4167.000000pt" viewBox="0 0 5834.000000 4167.000000"
 preserveAspectRatio="xMidYMid meet">

<g transform="translate(0.000000,4167.000000) scale(0.100000,-0.100000)"
fill="#000000" stroke="none">
<path d="M28785 34254 c-523 -32 -865 -70 -1250 -140 -3084 -562 -5693 -2704
-6850 -5624 -359 -905 -560 -1811 -626 -2815 -15 -234 -15 -828 0 -1070 63
-996 265 -1910 618 -2805 46 -118 125 -320 175 -449 1015 -2636 3048 -5979
5752 -9456 875 -1126 1863 -2306 2376 -2838 112 -117 140 -137 193 -137 49 0
87 31 312 261 958 979 2405 2710 3527 4219 2417 3252 4053 6239 4803 8770 122
412 256 961 319 1305 105 572 151 1083 150 1670 0 1005 -149 1932 -463 2875
-542 1627 -1509 3040 -2838 4147 -839 699 -1836 1256 -2878 1610 -746 252
-1463 396 -2310 464 -129 10 -895 20 -1010 13z m800 -1184 c1106 -69 2114
-338 3058 -817 75 -38 134 -72 131 -76 -12 -12 -26 -8 -18 5 4 6 3 8 -4 4 -6
-3 -13 -2 -17 4 -4 7 -13 7 -26 0 -11 -6 -17 -15 -14 -21 4 -5 2 -9 -4 -9 -5
0 -12 6 -14 13 -4 9 -6 9 -6 0 -2 -24 22 -25 40 -2 10 13 19 21 20 17 1 -5 2
-12 3 -17 2 -17 16 -24 28 -14 17 13 47 13 45 0 -1 -6 9 -11 23 -12 29 -2 74
-24 66 -32 -3 -4 -22 -6 -42 -5 -28 1 -35 -2 -30 -13 3 -8 2 -17 -3 -19 -12
-8 -10 27 2 44 9 12 9 13 -3 3 -11 -10 -158 -13 -662 -13 -442 0 -648 -3 -648
-10 0 -13 -35 19 -44 40 -3 8 -4 5 -2 -7 2 -13 -1 -23 -6 -23 -6 0 -4 -8 3
-17 13 -16 12 -17 -4 -4 -10 8 -15 21 -12 32 3 9 1 20 -5 24 -9 6 -14 -6 -11
-31 1 -9 -30 -11 -49 -4 -3 1 -9 2 -13 1 -5 -1 -5 4 -1 10 5 9 2 10 -10 6 -10
-4 -19 -1 -23 8 -4 12 -9 13 -18 5 -9 -8 -15 -8 -20 0 -3 6 -10 8 -15 5 -5 -3
-12 0 -16 6 -3 6 -1 15 6 19 9 6 6 10 -9 15 -13 4 -25 4 -28 1 -4 -3 2 -6 13
-7 16 0 16 -2 -4 -9 -31 -13 -122 8 -115 27 6 17 -13 17 -21 1 -5 -10 -7 -10
-12 0 -3 6 -9 10 -13 8 -4 -3 -43 4 -87 15 -112 28 -337 76 -485 104 -779 148
-1742 159 -2509 30 -47 -8 -101 -17 -120 -19 -19 -3 -91 -16 -160 -31 -69 -14
-136 -27 -150 -29 -14 -2 -32 -6 -40 -9 -21 -8 -243 -62 -255 -62 -5 0 -15 -3
-20 -7 -13 -8 -87 -23 -99 -20 -4 2 -14 -3 -22 -9 -8 -6 -14 -8 -14 -4 0 4 -7
2 -15 -5 -8 -7 -24 -10 -36 -7 -12 3 -22 0 -25 -8 -3 -7 -14 -11 -25 -8 -11 3
-19 0 -19 -7 0 -7 -6 -10 -14 -7 -8 3 -16 1 -18 -5 -2 -6 -33 -10 -78 -10
-641 5 -1395 1 -1400 -8 -5 -7 -11 -6 -20 5 -10 12 -16 13 -26 4 -8 -6 -14 -9
-14 -6 0 3 14 16 32 28 17 13 28 18 24 11 -4 -7 -3 -12 3 -12 5 0 11 3 14 8 2
4 2 1 0 -6 -1 -7 2 -10 7 -7 6 3 10 15 10 26 0 11 5 17 10 14 6 -3 10 -2 10 3
0 5 16 8 35 7 19 -2 32 1 29 6 -3 5 -10 7 -15 4 -5 -3 -6 0 -3 8 10 28 512
260 809 374 727 280 1505 448 2325 502 182 12 680 13 865 1z m3285 -990 c0 -5
-2 -10 -4 -10 -3 0 -8 5 -11 10 -3 6 -1 10 4 10 6 0 11 -4 11 -10z m-7536 -28
c3 -5 -1 -9 -9 -9 -8 0 -12 4 -9 9 3 4 7 8 9 8 2 0 6 -4 9 -8z m7706 -18 c0
-2 -9 0 -20 6 -11 6 -20 13 -20 16 0 2 9 0 20 -6 11 -6 20 -13 20 -16z m-1344
-16 c12 -14 13 -18 3 -10 -9 6 -20 8 -24 4 -5 -4 -5 -2 -2 5 4 6 1 14 -5 16
-8 3 -8 6 -2 6 6 1 19 -9 30 -21z m-6346 2 c0 -5 -2 -10 -4 -10 -3 0 -8 5 -11
10 -3 6 -1 10 4 10 6 0 11 -4 11 -10z m7631 -7 c13 -16 12 -17 -3 -4 -17 13
-22 21 -14 21 2 0 10 -8 17 -17z m-3206 -717 c1021 -111 1925 -433 2755 -980
1127 -744 1974 -1839 2399 -3104 102 -302 205 -703 225 -872 3 -25 -9 20 -28
100 -163 707 -412 1318 -780 1915 -404 655 -994 1284 -1626 1736 -923 661
-1983 1044 -3115 1127 -55 4 -271 7 -480 6 -407 0 -545 -10 -875 -60 -901
-138 -1744 -467 -2492 -972 -181 -123 -424 -307 -538 -408 -19 -17 -78 -69
-130 -115 -52 -46 -153 -142 -225 -214 -803 -800 -1363 -1796 -1629 -2895 -19
-80 -38 -165 -42 -190 -4 -25 -9 -40 -11 -33 -6 17 31 197 83 405 257 1031
782 1973 1524 2732 654 669 1393 1151 2262 1474 478 179 1063 309 1573 351 72
6 148 13 170 15 113 11 839 -3 980 -18z m-140 -1450 c578 -61 1073 -201 1580
-445 493 -238 903 -529 1290 -916 246 -246 440 -483 627 -770 607 -929 866
-2054 727 -3165 -66 -534 -220 -1040 -460 -1520 -175 -349 -363 -636 -620
-945 -111 -134 -427 -448 -569 -566 -682 -568 -1462 -922 -2317 -1054 -275
-42 -391 -50 -733 -50 -349 1 -504 13 -790 61 -1183 201 -2260 858 -2982 1819
-515 685 -820 1454 -925 2330 -25 215 -25 817 0 1025 97 788 335 1451 751
2085 373 568 871 1055 1451 1417 675 422 1443 665 2255 712 130 7 578 -4 715
-18z m-6458 -3558 c-3 -7 -5 -2 -5 12 0 14 2 19 5 13 2 -7 2 -19 0 -25z
m11990 -35 c-3 -10 -5 -4 -5 12 0 17 2 24 5 18 2 -7 2 -21 0 -30z m-12000 -20
c-3 -10 -5 -4 -5 12 0 17 2 24 5 18 2 -7 2 -21 0 -30z m12010 -35 c-3 -7 -5
-2 -5 12 0 14 2 19 5 13 2 -7 2 -19 0 -25z m-12020 -20 c-3 -8 -6 -5 -6 6 -1
11 2 17 5 13 3 -3 4 -12 1 -19z m12030 -40 c-3 -8 -6 -5 -6 6 -1 11 2 17 5 13
3 -3 4 -12 1 -19z m-12040 -20 c-3 -8 -6 -5 -6 6 -1 11 2 17 5 13 3 -3 4 -12
1 -19z m12060 -120 c-3 -8 -6 -5 -6 6 -1 11 2 17 5 13 3 -3 4 -12 1 -19z m-80
-2150 c-3 -8 -6 -5 -6 6 -1 11 2 17 5 13 3 -3 4 -12 1 -19z m-37 -170 c-172
-768 -521 -1537 -993 -2185 -643 -885 -1510 -1583 -2497 -2011 -766 -333
-1582 -502 -2427 -502 -978 0 -1893 217 -2758 655 -332 168 -590 327 -870 537
-907 678 -1602 1575 -2014 2600 -107 266 -240 684 -264 828 l-6 35 11 -35
c228 -731 435 -1181 794 -1727 718 -1090 1762 -1921 2984 -2376 490 -183 989
-297 1540 -354 181 -18 794 -25 1015 -10 790 51 1613 282 2340 656 1433 737
2520 2008 3025 3541 37 113 85 271 106 352 22 80 41 145 42 143 2 -2 -11 -68
-28 -147z"/>
<path d="M25621 32211 c-11 -7 -12 -13 -4 -23 6 -7 11 -17 11 -23 0 -5 6 -11
14 -13 9 -2 8 0 -2 7 -8 6 -11 11 -6 11 5 0 4 6 -3 13 -8 10 -7 17 1 25 14 14
9 15 -11 3z"/>
<path d="M27176 32198 c3 -5 10 -6 15 -3 13 9 11 12 -6 12 -8 0 -12 -4 -9 -9z"/>
<path d="M25649 32188 c15 -21 31 -23 31 -6 0 6 -3 8 -7 5 -3 -4 -13 -1 -22 6
-14 11 -14 10 -2 -5z"/>
<path d="M27070 32189 c0 -5 5 -7 10 -4 6 3 10 8 10 11 0 2 -4 4 -10 4 -5 0
-10 -5 -10 -11z"/>
<path d="M27110 32190 c0 -5 5 -10 11 -10 5 0 7 5 4 10 -3 6 -8 10 -11 10 -2
0 -4 -4 -4 -10z"/>
<path d="M31386 32142 c-2 -4 -1 -14 4 -22 7 -11 9 -9 7 8 -1 24 -3 26 -11 14z"/>
<path d="M26930 32129 c0 -5 5 -7 10 -4 6 3 10 8 10 11 0 2 -4 4 -10 4 -5 0
-10 -5 -10 -11z"/>
<path d="M32840 32131 c0 -5 7 -12 16 -15 14 -5 15 -4 4 9 -14 17 -20 19 -20
6z"/>
<path d="M26895 32120 c-3 -6 1 -7 9 -4 18 7 21 14 7 14 -6 0 -13 -4 -16 -10z"/>
<path d="M28976 7050 c-187 -15 -335 -48 -404 -90 -28 -17 -33 -26 -30 -52 5
-56 92 -96 271 -126 147 -24 583 -23 717 1 238 44 321 103 240 170 -41 35
-160 69 -306 87 -112 14 -367 19 -488 10z"/>
</g>
</svg>
