<?xml version="1.0" standalone="no"?>
<!DOCTYPE svg PUBLIC "-//W3C//DTD SVG 20010904//EN"
 "http://www.w3.org/TR/2001/REC-SVG-20010904/DTD/svg10.dtd">
<svg version="1.0" xmlns="http://www.w3.org/2000/svg"
 width="5339.000000pt" height="5339.000000pt" viewBox="0 0 5339.000000 5339.000000"
 preserveAspectRatio="xMidYMid meet">

<g transform="translate(0.000000,5339.000000) scale(0.100000,-0.100000)"
fill="#000000" stroke="none">
<path d="M26350 49340 c-267 -17 -459 -31 -680 -51 -4282 -380 -8272 -2190
-11400 -5170 -1392 -1327 -2600 -2888 -3522 -4554 -1239 -2238 -2000 -4661
-2267 -7215 -45 -433 -75 -862 -92 -1345 -13 -356 -7 -1360 11 -1690 67 -1288
207 -2283 470 -3335 381 -1527 999 -3004 2037 -4868 421 -758 1236 -2123 1352
-2266 305 -377 2044 -2417 2999 -3519 4322 -4987 7695 -8543 9657 -10178 768
-641 1326 -1000 1693 -1090 l88 -21 99 26 c923 246 3063 2167 6394 5741 2088
2240 4825 5346 7396 8395 634 751 563 657 842 1115 750 1232 1230 2085 1681
2985 291 580 446 917 652 1410 868 2087 1249 4108 1250 6620 1 3297 -818 6455
-2413 9310 -1280 2291 -3089 4355 -5212 5945 -583 437 -1263 887 -1875 1241
-1951 1126 -4105 1904 -6290 2269 -1075 180 -2276 283 -2870 245z m1170 -2600
c1352 -76 2509 -266 3721 -611 1608 -456 3188 -1185 4579 -2112 170 -114 450
-307 473 -327 4 -4 -16 -8 -45 -9 -52 -1 -58 2 -243 120 -511 325 -999 600
-1550 873 -523 260 -549 268 -155 50 377 -209 704 -407 1085 -659 260 -172
548 -376 541 -382 -3 -3 -132 -5 -288 -4 l-283 1 40 -22 c22 -11 60 -24 85
-28 25 -4 -146 -8 -379 -9 l-425 -1 55 -33 c92 -56 219 -141 219 -147 0 -3
-34 -4 -75 -2 l-75 4 0 -31 0 -31 -427 -2 c-236 0 -439 0 -453 1 -14 1 -22 0
-18 -4 3 -4 9 -5 11 -3 3 2 18 -8 33 -22 l27 -25 -12 25 c-11 24 -11 24 3 5 8
-11 19 -24 23 -28 4 -4 109 -66 233 -136 991 -564 1863 -1199 2733 -1989 222
-201 738 -718 940 -940 863 -950 1590 -1979 2174 -3077 1408 -2646 1980 -5647
1647 -8645 -329 -2967 -1545 -5760 -3505 -8045 -457 -534 -1024 -1103 -1569
-1576 -1618 -1404 -3571 -2466 -5620 -3054 -810 -233 -1667 -403 -2470 -490
-80 -9 -161 -18 -180 -20 -19 -2 -66 -6 -105 -10 -38 -3 -90 -8 -115 -10 -296
-29 -805 -52 -1215 -53 -3063 -14 -6075 932 -8590 2698 -994 697 -1935 1547
-2730 2465 -2609 3012 -3895 6900 -3599 10875 177 2384 936 4707 2202 6740
402 645 874 1288 1371 1865 479 555 1051 1126 1626 1620 312 269 799 647 1110
865 195 136 188 129 173 148 -12 15 -11 16 4 4 20 -16 42 -6 33 15 -4 13 -3
14 10 3 11 -9 15 -9 15 -1 0 7 4 10 9 6 5 -3 12 -1 16 5 4 7 -50 10 -159 10
l-166 0 0 -30 0 -29 -350 -3 c-193 -2 -357 -1 -365 2 -22 8 -10 20 140 132
371 278 990 696 1278 861 49 29 59 40 30 32 -10 -3 -2 2 17 10 111 49 190 44
-780 45 l-315 0 50 26 c28 15 52 28 54 30 2 2 -22 4 -53 4 -51 0 -57 -2 -52
-17 6 -17 5 -17 -7 -1 -12 15 -14 15 -23 1 -8 -13 -10 -12 -10 6 0 17 34 44
156 125 1163 770 2469 1406 3805 1852 l190 64 -550 0 c-466 0 -547 2 -535 14
26 24 106 46 120 33 8 -9 10 -8 5 3 -4 12 7 20 42 32 26 9 162 55 301 103
1483 504 3037 788 4682 855 258 11 1185 4 1430 -10z m8375 -3080 c3 -6 -1 -7
-9 -4 -18 7 -21 14 -7 14 6 0 13 -4 16 -10z m58 -14 c6 -15 -17 -16 -30 -1 -4
4 -2 5 5 1 6 -4 12 -2 12 3 0 15 7 14 13 -3z m-18138 -15 c-9 -8 -36 -10 -30
-2 2 4 11 8 20 8 8 0 13 -3 10 -6z m16960 -41 c3 -5 2 -10 -4 -10 -5 0 -13 5
-16 10 -3 6 -2 10 4 10 5 0 13 -4 16 -10z m-16251 -1016 c3 -8 2 -12 -4 -9 -6
3 -10 10 -10 16 0 14 7 11 14 -7z"/>
<path d="M31943 45755 c0 -8 4 -12 9 -9 5 3 6 10 3 15 -9 13 -12 11 -12 -6z"/>
<path d="M32136 45732 c-3 -5 1 -9 9 -9 8 0 12 4 9 9 -3 4 -7 8 -9 8 -2 0 -6
-4 -9 -8z"/>
<path d="M32195 45641 c424 -144 947 -345 1280 -491 76 -33 140 -59 142 -57
11 11 -688 332 -1112 510 l-240 101 -135 3 -135 2 200 -68z"/>
<path d="M17420 30430 l0 -9390 1895 0 1895 0 0 3539 0 3538 1668 6 c1561 6
1951 11 2512 37 1008 46 1887 146 2380 270 736 185 1543 603 2160 1119 153
128 420 395 556 556 463 550 822 1188 1023 1820 241 753 338 1677 280 2645
-73 1224 -424 2267 -1037 3085 -223 297 -607 706 -862 916 -574 475 -1206 799
-1899 974 -596 150 -1589 232 -3206 265 -266 5 -2015 10 -3922 10 l-3443 0 0
-9390z m6805 6200 c1325 -37 1772 -107 2280 -355 489 -238 879 -610 1119
-1067 241 -458 331 -1086 240 -1673 -123 -793 -623 -1469 -1349 -1825 -77 -37
-183 -84 -236 -104 -403 -149 -941 -227 -1919 -277 -127 -7 -814 -13 -1682
-16 l-1468 -5 0 2666 0 2666 1338 0 c735 0 1490 -5 1677 -10z"/>
<path d="M31635 28850 c-694 -41 -1121 -96 -1518 -196 -674 -168 -833 -240
-989 -445 -169 -222 -223 -405 -363 -1219 -28 -164 -125 -772 -125 -786 0 -2
35 -4 79 -4 89 0 145 -16 205 -60 l41 -31 13 88 c77 520 178 1086 227 1278 77
300 205 502 395 623 109 71 323 150 565 210 556 139 1402 225 1900 193 807
-52 1477 -178 1842 -346 228 -105 372 -280 469 -570 52 -156 176 -820 249
-1335 22 -151 21 -148 48 -123 50 47 108 67 205 71 l94 4 -7 47 c-63 443 -204
1248 -251 1441 -91 365 -242 600 -473 731 -74 42 -224 90 -485 154 -794 194
-1639 304 -2121 275z"/>
<path d="M28071 26099 c-59 -11 -115 -50 -148 -101 l-28 -41 -3 -241 c-4 -265
1 -296 50 -352 64 -73 86 -78 335 -82 182 -3 236 -1 295 13 40 9 120 19 178
22 63 3 114 11 127 19 12 8 35 35 50 61 28 48 28 48 31 263 2 118 1 234 -3
256 -9 62 -56 126 -117 160 l-53 29 -335 2 c-184 1 -355 -3 -379 -8z"/>
<path d="M34865 26105 c-5 -2 -27 -6 -47 -9 -24 -5 -54 -22 -87 -52 -76 -69
-83 -101 -79 -376 3 -242 5 -251 65 -315 27 -29 32 -30 143 -36 63 -4 142 -13
175 -21 74 -19 452 -22 520 -5 53 13 119 67 145 120 18 35 20 59 20 279 0 262
-4 287 -58 343 -15 16 -45 39 -67 50 -38 21 -53 22 -380 24 -187 1 -344 1
-350 -2z"/>
<path d="M31425 25945 c-684 -68 -1347 -317 -1866 -701 l-110 -82 120 -96
c271 -218 436 -482 513 -824 20 -92 22 -125 25 -659 l4 -563 200 0 199 0 0 40
c0 87 20 141 70 191 37 37 58 49 101 59 40 8 344 10 1159 8 1236 -3 1130 3
1203 -77 41 -45 57 -93 57 -168 l0 -53 200 0 200 0 0 503 c0 281 5 540 10 587
48 397 246 741 563 980 47 36 86 67 87 70 0 3 -37 33 -82 67 -562 414 -1225
661 -1943 722 -161 14 -549 12 -710 -4z m1819 -1334 c84 -56 73 -178 -20 -217
-50 -21 -2788 -21 -2838 0 -77 32 -102 124 -49 186 14 18 36 36 47 40 12 5
653 9 1426 9 1373 1 1406 0 1434 -18z m-226 -381 l224 -5 29 -33 c23 -26 29
-41 29 -80 0 -55 -17 -85 -63 -109 -30 -17 -123 -18 -1432 -18 -1319 0 -1402
1 -1432 18 -58 31 -79 106 -48 167 26 50 45 55 250 60 245 8 2151 8 2443 0z
m248 -432 c28 -31 34 -45 34 -83 0 -38 -6 -52 -34 -83 l-34 -37 -1409 -3
c-1039 -2 -1415 1 -1436 9 -46 19 -77 65 -77 113 0 48 19 79 64 107 30 19 67
19 1444 17 l1414 -3 34 -37z"/>
<path d="M34565 25200 c-112 -24 -151 -38 -295 -111 -323 -162 -545 -459 -643
-859 -19 -80 -20 -121 -24 -647 l-4 -563 1186 0 1186 0 -4 558 c-4 603 -3 595
-64 786 -111 352 -370 639 -698 776 -75 31 -90 34 -235 40 -108 5 -167 12
-194 24 -49 20 -98 19 -211 -4z m410 -435 c194 -52 363 -193 458 -381 54 -108
71 -181 71 -314 0 -138 -17 -210 -76 -330 -34 -69 -61 -104 -138 -181 -79 -80
-109 -103 -180 -138 -119 -57 -193 -75 -325 -75 -126 0 -204 17 -310 68 -188
89 -322 247 -386 456 -30 96 -33 279 -5 379 71 259 280 461 540 522 97 22 256
20 351 -6z"/>
<path d="M28620 25196 c-220 -29 -427 -142 -616 -338 -200 -207 -317 -461
-353 -763 -6 -53 -11 -295 -11 -582 l0 -493 284 0 c179 0 286 4 288 10 2 6 23
6 63 0 36 -6 396 -10 898 -10 l838 0 -4 563 c-3 490 -6 572 -21 637 -74 316
-228 570 -459 755 -84 67 -292 177 -400 211 -71 22 -364 28 -507 10z m350
-431 c142 -44 288 -141 375 -253 282 -359 161 -890 -250 -1092 -113 -56 -189
-74 -320 -73 -131 0 -205 17 -325 76 -70 34 -102 58 -181 136 -78 79 -102 111
-136 181 -23 47 -50 114 -59 150 -23 87 -23 262 -1 350 39 149 145 311 261
398 77 59 207 119 291 137 88 18 268 13 345 -10z"/>
<path d="M30685 23210 c-38 -15 -67 -57 -72 -103 l-5 -43 1196 0 1196 -1 0 30
c0 47 -30 98 -66 113 -28 12 -220 14 -1131 13 -604 0 -1107 -4 -1118 -9z"/>
<path d="M27642 22726 c3 -159 5 -175 29 -226 37 -79 81 -125 157 -162 l67
-33 1307 -3 1308 -2 0 298 0 299 -1436 0 -1436 0 4 -171z"/>
<path d="M30610 22599 l0 -299 1195 0 1195 0 0 299 0 298 -1195 0 -1195 0 0
-298z"/>
<path d="M33100 22599 l0 -299 1287 0 c1427 0 1350 -3 1446 66 111 80 137 152
137 375 l0 157 -1435 0 -1435 0 0 -299z"/>
<path d="M28270 21837 c0 -303 3 -372 16 -418 51 -175 188 -312 363 -363 74
-22 479 -23 560 -1 135 36 264 138 329 261 57 109 62 151 62 537 l0 347 -665
0 -665 0 0 -363z"/>
<path d="M34012 21828 l4 -373 26 -69 c64 -168 194 -288 359 -331 81 -22 486
-21 560 1 172 51 296 169 358 338 26 71 26 73 29 439 l4 367 -672 0 -672 0 4
-372z"/>
<path d="M30610 22130 c0 -38 23 -84 52 -104 20 -14 144 -16 1145 -16 l1123 0
31 28 c24 21 32 38 36 75 l6 47 -1197 0 -1196 0 0 -30z"/>
</g>
</svg>
